# xmcd
#
# Track frame offsets: 
#        180
#        55512
#        111006
#        152785
#        188337
#
# Disc length: 4321 seconds
#
# Revision: 2
# Processed by: cddbd v1.5.2PL0 Copyright (c) Steve Scherf et al.
# Submitted via: ExactAudioCopy v1.0b3
#
DISCID=2f10df05
DTITLE=Pino and Wildjamin - The MS-Series
DYEAR=1995
DGENRE=Ambient
TTITLE0=Monochill
TTITLE1=Voltage Control
TTITLE2=No Comment
TTITLE3=Compress It
TTITLE4=Dub
EXTD=
EXTT0=
EXTT1=
EXTT2=
EXTT3=
EXTT4=
PLAYORDER=
